<?xml version="1.0" standalone="no"?>
<!DOCTYPE svg PUBLIC "-//W3C//DTD SVG 20010904//EN"
 "http://www.w3.org/TR/2001/REC-SVG-20010904/DTD/svg10.dtd">
<svg version="1.0" xmlns="http://www.w3.org/2000/svg"
 width="170.000000pt" height="170.000000pt" viewBox="0 0 170.000000 170.000000"
 preserveAspectRatio="xMidYMid meet">

<g transform="translate(0.000000,170.000000) scale(0.100000,-0.100000)"
fill="#000000" stroke="none">
<path d="M875 1490 c4 -7 3 -15 -3 -19 -5 -3 -13 -34 -17 -68 -6 -57 -5 -63
12 -64 10 0 0 -6 -22 -14 -41 -13 -40 -17 5 -18 24 0 24 0 2 -4 -31 -6 -25
-35 8 -44 l25 -6 -24 -4 c-24 -4 -37 -34 -20 -45 5 -3 9 -2 8 3 -3 19 2 34 10
29 13 -8 7 -36 -10 -48 -11 -8 -11 -9 3 -4 10 3 20 0 24 -5 9 -15 -16 -59 -33
-59 -7 0 -13 -4 -13 -10 0 -5 7 -7 15 -4 17 7 21 -11 4 -22 -8 -4 -7 -9 2 -16
10 -6 7 -7 -8 -3 -14 4 -23 2 -23 -4 0 -6 5 -11 10 -11 6 0 10 -9 10 -21 0
-13 4 -18 12 -13 7 4 8 3 4 -4 -4 -6 0 -22 8 -34 11 -18 13 -40 7 -94 -5 -59
-4 -74 9 -83 12 -8 10 -10 -11 -5 -21 4 -27 1 -32 -17 -3 -13 -2 -28 2 -33 16
-20 6 -61 -15 -62 -42 -2 -43 -3 -27 -35 15 -30 22 -32 66 -14 12 5 17 2 17
-9 0 -13 -13 -15 -77 -15 -43 1 -91 -4 -107 -10 -21 -8 -32 -8 -42 0 -21 17
-54 1 -54 -27 0 -17 5 -24 20 -24 11 0 20 5 20 10 0 6 13 10 28 10 15 0 32 4
38 10 12 12 76 16 93 6 7 -5 31 -8 53 -8 31 1 38 -2 34 -14 -3 -9 -6 -18 -6
-20 0 -2 -7 -4 -15 -4 -8 0 -15 4 -15 9 0 5 -19 8 -42 8 -24 0 -53 3 -65 7
-13 4 -23 3 -23 -2 0 -9 37 -25 53 -23 4 1 7 -8 7 -20 0 -12 -4 -17 -11 -13
-8 4 -9 -1 -4 -17 4 -13 8 -24 9 -24 0 -1 14 -6 29 -13 l28 -12 -28 -30 c-15
-17 -32 -30 -36 -30 -14 0 -36 -27 -29 -35 15 -16 -61 6 -89 26 -16 11 -29 16
-29 10 0 -9 55 -45 72 -46 3 0 15 -10 26 -22 10 -13 23 -19 27 -15 5 4 5 2 1
-5 -4 -7 0 -24 9 -37 9 -14 17 -31 19 -38 4 -27 31 -83 45 -94 17 -13 8 -19
-41 -28 -20 -4 -38 -12 -41 -20 -3 -7 -22 -21 -42 -30 -32 -15 -39 -16 -58 -3
-36 24 -79 70 -94 102 -8 17 -22 44 -31 60 -14 24 -17 57 -17 170 0 120 -2
139 -15 135 -8 -2 -57 -6 -107 -8 -51 -2 -93 -8 -93 -13 0 -5 -8 -9 -17 -9
-10 0 -27 -7 -37 -15 -11 -8 -28 -15 -37 -15 -10 0 -19 -6 -21 -12 -3 -9 -28
-13 -76 -13 -40 0 -67 -2 -62 -3 17 -6 11 -22 -9 -22 -17 0 -18 -12 -20 -200
l-2 -200 375 0 c244 0 376 4 376 10 0 6 14 10 31 10 36 0 72 17 64 31 -4 6 9
8 31 7 21 -2 39 -9 42 -17 3 -9 0 -11 -8 -6 -9 5 -11 4 -6 -3 4 -7 23 -12 42
-12 19 0 34 -4 34 -10 0 -6 127 -10 360 -10 l360 0 0 145 0 145 -27 5 c-16 4
-36 10 -45 16 -10 5 -28 9 -41 9 -13 0 -27 3 -31 7 -4 5 -11 8 -14 9 -34 4
-83 18 -88 25 -3 5 -15 9 -28 9 -12 0 -31 7 -42 15 -10 8 -29 15 -41 15 -13 0
-23 5 -23 10 0 6 -13 9 -29 8 -17 -1 -38 5 -49 15 -10 9 -33 20 -50 23 -18 4
-32 8 -32 11 0 2 9 21 19 41 31 59 49 104 56 145 6 32 11 37 36 37 51 0 62 32
60 183 -1 61 -4 77 -16 77 -9 0 -12 6 -9 15 5 11 -1 15 -18 15 l-25 0 13 52
c8 30 10 56 5 61 -15 15 -35 -132 -23 -168 18 -49 25 -104 16 -122 -9 -22 -11
-29 -13 -46 0 -8 -8 -14 -16 -14 -11 0 -12 4 -5 11 13 13 13 89 0 102 -10 10
-17 51 -19 114 -1 24 -10 45 -31 67 -16 17 -26 34 -21 37 5 3 8 20 7 38 -1 18
4 43 12 55 7 12 12 39 10 60 -3 33 -7 39 -33 44 -30 7 -30 7 -3 8 15 0 34 8
42 17 14 14 17 12 31 -20 8 -20 22 -52 30 -72 21 -49 28 -38 15 23 -11 52 -69
133 -95 133 -7 0 -18 7 -25 15 -15 18 -35 20 -24 3 4 -7 3 -8 -4 -4 -6 4 -9
13 -6 20 3 9 -4 17 -18 22 -13 4 -40 18 -61 31 -22 14 -45 22 -52 19 -8 -3
-15 -1 -17 5 -2 5 -17 11 -33 14 -17 2 -41 7 -54 11 -18 5 -22 4 -16 -6z m70
-290 c3 -5 1 -10 -4 -10 -6 0 -11 5 -11 10 0 6 2 10 4 10 3 0 8 -4 11 -10z
m222 -26 c-3 -3 -12 -4 -19 -1 -8 3 -5 6 6 6 11 1 17 -2 13 -5z m-218 -392 c0
-24 -1 -25 -9 -7 -12 28 -12 47 0 40 6 -3 10 -18 9 -33z m-61 -32 c-2 -6 -8
-6 -18 0 -13 9 -13 11 0 20 15 10 25 0 18 -20z m-8 -224 c0 -11 -19 -15 -25
-6 -3 5 1 10 9 10 9 0 16 -2 16 -4z m280 -120 c0 -3 -4 -8 -10 -11 -5 -3 -10
-1 -10 4 0 6 5 11 10 11 6 0 10 -2 10 -4z m-380 -56 c0 -5 -5 -10 -11 -10 -5
0 -7 5 -4 10 3 6 8 10 11 10 2 0 4 -4 4 -10z m850 -255 c10 -12 10 -18 0 -30
-20 -24 -90 -17 -90 9 0 34 66 50 90 21z m-913 -77 c-3 -8 -6 -5 -6 6 -1 11 2
17 5 13 3 -3 4 -12 1 -19z"/>
<path d="M1577 84 c-13 -13 -7 -24 14 -24 11 0 19 5 17 12 -5 14 -22 21 -31
12z"/>
<path d="M470 1340 c-9 -6 -10 -10 -3 -10 6 0 15 5 18 10 8 12 4 12 -15 0z"/>
<path d="M425 1269 c-4 -6 -5 -12 -2 -15 2 -3 7 2 10 11 7 17 1 20 -8 4z"/>
<path d="M797 1274 c-13 -13 -7 -44 7 -44 8 0 17 4 20 9 7 11 -18 44 -27 35z"/>
<path d="M21 1252 c-1 -20 70 -77 91 -74 17 3 18 1 8 -18 l-11 -21 -28 20
c-16 11 -32 17 -36 13 -5 -4 -5 -2 -2 4 4 7 0 15 -9 18 -14 5 -15 -29 -12
-329 2 -219 0 -335 -7 -335 -5 0 -2 -5 8 -11 14 -8 16 -14 6 -25 -9 -11 -7
-14 10 -14 11 0 21 -4 21 -10 0 -5 -6 -10 -12 -10 -9 0 -8 -4 2 -10 23 -15 28
-12 35 19 5 25 11 29 39 29 18 0 39 -4 47 -10 11 -8 10 -9 -3 -4 -10 3 -18 1
-18 -5 0 -6 -8 -8 -18 -5 -14 5 -14 4 2 -9 22 -16 36 -19 36 -7 0 4 17 16 38
26 20 10 45 22 54 27 10 5 47 9 83 9 61 0 65 1 65 23 0 13 -3 17 -8 10 -13
-20 -59 -27 -65 -9 -3 8 -2 18 3 21 18 11 10 25 -15 25 -36 0 -31 16 8 25 31
8 31 8 6 12 -21 3 -25 8 -21 28 2 14 10 30 18 36 8 6 14 17 14 23 -1 14 -52
83 -63 84 -14 1 -21 12 -8 12 8 0 10 7 6 21 -5 14 -2 25 6 30 11 8 10 13 -8
28 l-22 19 22 6 c12 3 26 6 30 6 8 0 0 -77 -9 -92 -2 -3 0 -9 6 -13 5 -3 10
-1 10 5 0 6 4 9 9 6 14 -9 19 28 11 73 -4 23 -3 41 1 41 5 0 9 5 9 11 0 5 -4
8 -9 4 -5 -3 -13 -1 -16 5 -4 6 -3 10 2 9 22 -4 22 4 -3 36 -15 20 -29 33 -32
30 -3 -2 -11 3 -18 13 -12 16 -13 15 -14 -5 0 -18 -6 -23 -24 -23 -14 0 -28 5
-31 10 -6 10 8 14 34 10 11 -1 12 1 4 12 -12 14 -13 17 -13 49 0 16 -4 19 -17
15 -14 -6 -14 -3 3 15 l19 22 -30 -6 c-16 -3 -25 -4 -19 -1 15 6 6 41 -12 48
-7 3 -23 3 -35 1 -17 -4 -20 -2 -11 7 20 20 14 28 -17 22 -16 -4 -32 -1 -35 5
-4 6 -16 11 -26 11 -10 0 -21 6 -23 13 -4 9 -6 9 -6 -1z m144 -112 c18 -20 17
-20 -13 -20 -34 0 -35 1 -26 24 8 21 17 20 39 -4z m25 -45 c0 -8 -4 -15 -9
-15 -13 0 -22 16 -14 24 11 11 23 6 23 -9z m15 -24 c3 -5 1 -12 -5 -16 -5 -3
-10 1 -10 9 0 18 6 21 15 7z m83 -140 c3 -8 -1 -12 -9 -9 -7 2 -15 10 -17 17
-3 8 1 12 9 9 7 -2 15 -10 17 -17z m-18 -156 c0 -8 -4 -15 -10 -15 -5 0 -10 7
-10 15 0 8 5 15 10 15 6 0 10 -7 10 -15z m-30 -65 c0 -5 -7 -15 -15 -24 -8 -8
-15 -19 -15 -25 0 -13 -17 -14 -25 -2 -3 6 2 14 10 19 9 4 17 18 18 29 1 19
27 22 27 3z m-88 -102 c-13 -13 -26 8 -17 30 6 16 7 16 17 -1 7 -13 7 -22 0
-29z m45 -22 c-4 -10 -1 -13 9 -9 7 3 14 0 14 -6 0 -6 11 -11 25 -11 27 0 32
-13 13 -34 -10 -11 -14 -9 -23 8 -11 23 -50 29 -50 9 0 -7 -4 -13 -10 -12 -5
1 -9 5 -7 10 1 5 4 20 6 32 3 12 5 23 5 25 1 1 6 2 12 2 6 0 9 -7 6 -14z m15
-88 c-12 -12 -35 -1 -27 12 3 5 13 6 21 3 10 -4 12 -9 6 -15z"/>
<path d="M790 1209 c0 -5 5 -7 10 -4 6 3 10 8 10 11 0 2 -4 4 -10 4 -5 0 -10
-5 -10 -11z"/>
<path d="M570 1030 c0 -5 12 -10 28 -11 23 -1 20 -4 -25 -24 -50 -23 -70 -41
-59 -52 3 -3 21 2 40 11 45 21 59 20 51 -3 -4 -12 0 -21 12 -26 17 -7 17 -8
-2 -16 -16 -7 -13 -8 13 -6 17 2 32 -1 32 -6 0 -5 6 -4 14 3 8 6 23 11 33 10
33 -4 45 0 41 12 -3 7 2 19 9 26 8 8 11 23 8 33 -4 11 -2 19 6 19 8 0 8 4 -2
16 -7 8 -21 13 -31 11 -10 -3 -18 -1 -18 4 0 5 -34 9 -75 9 -43 0 -75 -4 -75
-10z"/>
<path d="M364 930 c1 -27 2 -28 14 -13 13 19 12 35 -5 40 -6 2 -10 -10 -9 -27z"/>
<path d="M390 875 c-6 -8 -10 -21 -8 -31 2 -11 7 -6 15 15 13 34 11 38 -7 16z"/>
<path d="M623 763 c-28 -31 -52 -88 -41 -98 13 -13 49 14 86 65 23 32 42 60
42 64 0 3 -12 6 -27 5 -18 -1 -39 -13 -60 -36z"/>
<path d="M736 731 c-3 -5 0 -11 8 -14 19 -8 57 3 50 14 -7 12 -51 12 -58 0z"/>
<path d="M411 683 c7 -10 15 -20 16 -22 2 -2 3 5 3 17 0 14 -6 22 -16 22 -14
0 -15 -3 -3 -17z"/>
<path d="M101 464 c0 -11 3 -14 6 -6 3 7 2 16 -1 19 -3 4 -6 -2 -5 -13z"/>
</g>
</svg>
