<svg width="105.679150390625px" height="112.39999999999999px" xmlns="http://www.w3.org/2000/svg" viewBox="197.1604248046875 18.800000000000004 105.679150390625 112.39999999999999" style="background: rgb(0, 28, 39);" preserveAspectRatio="xMidYMid"><defs><filter id="editing-lego" x="-100%" y="-100%" width="300%" height="300%"><feFlood flood-color="#fef02d" result="f1"></feFlood><feFlood flood-color="#cc232a" result="f2"></feFlood><feMorphology operator="dilate" radius="3" in="SourceAlpha"></feMorphology><feConvolveMatrix order="5,5" divisor="1" result="cm1" kernelMatrix="0 1 1 1 0  1 0 0 0 1  1 0 0 0 1  1 0 0 0 1  0 1 1 1 0"></feConvolveMatrix><feComposite operator="in" in="f1" in2="cm1" result="c1"></feComposite><feMorphology operator="dilate" radius="3"></feMorphology><feConvolveMatrix order="5,5" divisor="1" result="cm2" kernelMatrix="0 1 1 1 0  1 0 0 0 1  1 0 0 0 1  1 0 0 0 1  0 1 1 1 0"></feConvolveMatrix><feComposite operator="in" in="f2" in2="cm2" result="c2"></feComposite><feMerge><feMergeNode in="c2"></feMergeNode><feMergeNode in="c1"></feMergeNode><feMergeNode in="SourceGraphic"></feMergeNode></feMerge></filter></defs><g filter="url(#editing-lego)"><g transform="translate(222.07204806804657, 98.7400016784668)"><path d="M23.55-1.28L23.55-1.28Q21.95-1.02 20.03-0.70L20.03-0.70L20.03-0.70Q18.11-0.38 16.58-0.13L16.58-0.13L16.58-0.13Q16.83-2.24 17.09-4.29L17.09-4.29L17.09-4.29Q17.28-6.08 17.44-7.87L17.44-7.87L17.44-7.87Q17.60-9.66 17.73-10.94L17.73-10.94L12.16-10.94L9.60-1.73L9.60-1.73Q8.19-1.54 6.27-1.31L6.27-1.31L6.27-1.31Q4.35-1.09 2.69-0.90L2.69-0.90L2.69-0.90Q0.64-0.64-1.34-0.38L-1.34-0.38L-1.34-0.38Q1.22-8.90 3.71-17.15L3.71-17.15L3.71-17.15Q4.74-20.61 5.86-24.38L5.86-24.38L5.86-24.38Q6.98-28.16 8.10-31.90L8.10-31.90L8.10-31.90Q9.22-35.65 10.24-39.10L10.24-39.10L10.24-39.10Q11.26-42.56 12.03-45.44L12.03-45.44L12.03-45.44Q16.38-45.76 20.90-46.21L20.90-46.21L20.90-46.21Q25.41-46.66 29.70-47.42L29.70-47.42L29.70-47.42Q29.50-45.38 29.28-42.34L29.28-42.34L29.28-42.34Q29.06-39.30 28.86-35.71L28.86-35.71L28.86-35.71Q28.67-32.13 28.48-28.22L28.48-28.22L28.48-28.22Q28.29-24.32 28.10-20.54L28.10-20.54L28.10-20.54Q27.78-11.71 27.39-1.79L27.39-1.79L27.39-1.79Q25.47-1.47 23.55-1.28L23.55-1.28ZM17.66-33.41L13.70-17.34L13.70-17.34Q13.95-17.34 14.62-17.38L14.62-17.38L14.62-17.38Q15.30-17.41 16.03-17.44L16.03-17.44L16.03-17.44Q16.77-17.47 17.41-17.50L17.41-17.50L17.41-17.50Q18.05-17.54 18.30-17.60L18.30-17.60L18.30-17.60Q18.30-17.98 18.40-18.91L18.40-18.91L18.40-18.91Q18.50-19.84 18.59-21.02L18.59-21.02L18.59-21.02Q18.69-22.21 18.82-23.62L18.82-23.62L18.82-23.62Q18.94-25.02 19.07-26.37L19.07-26.37L19.07-26.37Q19.33-29.63 19.71-33.41L19.71-33.41L20.10-38.98L19.14-38.91L17.66-33.41ZM38.34-2.62L27.97 0.06L27.97 0.06Q29.70-8.45 31.30-16.58L31.30-16.58L31.30-16.58Q31.87-20.03 32.58-23.78L32.58-23.78L32.58-23.78Q33.28-27.52 33.89-31.20L33.89-31.20L33.89-31.20Q34.50-34.88 35.04-38.30L35.04-38.30L35.04-38.30Q35.58-41.73 35.90-44.54L35.90-44.54L35.90-44.54Q39.55-45.70 43.78-46.24L43.78-46.24L43.78-46.24Q48-46.78 52.16-46.78L52.16-46.78L52.16-46.78Q54.66-46.78 56.29-46.21L56.29-46.21L56.29-46.21Q57.92-45.63 58.85-44.58L58.85-44.58L58.85-44.58Q59.78-43.52 60.16-42.11L60.16-42.11L60.16-42.11Q60.54-40.70 60.54-38.98L60.54-38.98L60.54-38.98Q60.54-36.42 59.65-33.95L59.65-33.95L59.65-33.95Q58.75-31.49 57.25-29.28L57.25-29.28L57.25-29.28Q55.74-27.07 53.79-25.25L53.79-25.25L53.79-25.25Q51.84-23.42 49.60-22.27L49.60-22.27L49.60-22.27Q50.75-19.71 52.06-16.67L52.06-16.67L52.06-16.67Q53.38-13.63 54.53-10.88L54.53-10.88L54.53-10.88Q55.81-7.68 57.15-4.48L57.15-4.48L47.23-1.02L47.23-1.02Q45.95-5.44 44.93-9.34L44.93-9.34L44.93-9.34Q44.48-10.94 44.03-12.64L44.03-12.64L44.03-12.64Q43.58-14.34 43.20-15.84L43.20-15.84L43.20-15.84Q42.82-17.34 42.56-18.50L42.56-18.50L42.56-18.50Q42.30-19.65 42.24-20.29L42.24-20.29L41.41-20.03L41.41-20.03Q41.02-17.98 40.48-15.04L40.48-15.04L40.48-15.04Q39.94-12.10 39.49-9.34L39.49-9.34L39.49-9.34Q38.91-6.08 38.34-2.62L38.34-2.62ZM45.06-37.89L43.01-27.71L43.01-27.71Q44.22-27.84 45.98-28.74L45.98-28.74L45.98-28.74Q47.74-29.63 49.34-30.88L49.34-30.88L49.34-30.88Q50.94-32.13 52.10-33.47L52.10-33.47L52.10-33.47Q53.25-34.82 53.25-35.84L53.25-35.84L53.25-35.84Q53.25-36.54 52.80-36.96L52.80-36.96L52.80-36.96Q52.35-37.38 51.55-37.60L51.55-37.60L51.55-37.60Q50.75-37.82 49.79-37.89L49.79-37.89L49.79-37.89Q48.83-37.95 47.81-37.95L47.81-37.95L47.81-37.95Q47.10-37.95 46.37-37.92L46.37-37.92L46.37-37.92Q45.63-37.89 45.06-37.89L45.06-37.89Z" fill="#cc232a"></path></g></g><style>text {
  font-size: 64px;
  font-family: Arial Black;
  dominant-baseline: central;
  text-anchor: middle;
}</style></svg>